# xmcd
#
# Track frame offsets:
#	150
#	67124
#	81349
#	108683
#	145513
#	183387
#	212306
#	242906
#	280918
#
# Disc length: 4239 seconds
#
# Revision: 1
# Processed by: cddbd v1.5.2PL0 Copyright (c) Steve Scherf et al.
# Submitted via: audiograbber 1.83.01
#
DISCID=83108d09
DTITLE=Grateful Dead - 78-10-18 Winterland Arena, San Francisco CA
DYEAR=1900
DGENRE=
TTITLE0=Sugaree
TTITLE1=Me and My Uncle
TTITLE2=Big River
TTITLE3=Peggy-O
TTITLE4=Looks Like Rain
TTITLE5=Stagger Lee
TTITLE6=Minglewood Blues
TTITLE7=Candyman
TTITLE8=The Music Never Stopped
EXTD=
EXTT0=
EXTT1=
EXTT2=
EXTT3=
EXTT4=
EXTT5=
EXTT6=
EXTT7=
EXTT8=
PLAYORDER=
